<svg width="140" height="32" viewBox="0 0 140 32" fill="none" xmlns="http://www.w3.org/2000/svg">
<path d="M69.2051 20.7196C69.1564 22.8682 67.6315 25.3587 63.4461 25.3587C60.9154 25.3587 59.3905 24.317 59.3905 22.5915C59.3905 20.7033 60.8505 19.7266 63.9815 19.5313L69.2051 19.3685V20.7196ZM65.0035 10.4809H64.9224C62.5701 10.4809 60.6072 11.1646 59.3743 12.4342C58.6767 13.1504 58.2225 13.9969 58.0278 14.9735C58.0116 15.0875 58.0927 15.1852 58.2062 15.1852H60.4612C60.9316 13.5411 62.489 12.6296 64.8899 12.6296H64.971C67.6153 12.6296 69.2051 13.5737 69.2051 15.1363V17.2524C69.2051 17.3013 69.1564 17.3501 69.1078 17.3501L63.6408 17.5943C59.212 17.8221 57.0544 19.4662 57.0544 22.6078C57.0544 26.254 60.2989 27.5562 63.3488 27.5562C65.6848 27.5562 67.4044 26.9214 68.8969 25.4727L69.2376 25.0983V27.2307H71.5087V15.4619C71.5087 12.2877 69.1402 10.4809 65.0035 10.4809Z" fill="#003349"/>
<path d="M82.394 10.4809C77.7381 10.4809 74.4774 14.3224 74.4774 19.0592C74.4774 23.7472 77.6084 27.5725 82.394 27.5725C84.9896 27.5725 87.0985 26.4819 88.5747 24.5123C88.8992 24.0728 89.1912 23.5845 89.4345 23.0636C89.4832 22.9496 89.4021 22.8031 89.2723 22.8031H86.92C86.4983 23.4705 86.0278 23.9263 85.8331 24.1053C84.8436 24.9681 83.7567 25.4076 82.394 25.4076C79.3928 25.4076 76.8297 22.5915 76.8297 19.0755C76.8297 15.527 79.3928 12.6784 82.394 12.6784C83.8378 12.6784 84.9896 13.183 86.0278 14.1759C86.1738 14.3224 86.5307 14.6968 86.8714 15.2014H89.2236C89.3534 15.2014 89.4508 15.0549 89.3859 14.941C88.9803 14.0783 88.4936 13.4434 88.1367 13.0528C86.6605 11.3762 84.7138 10.4809 82.394 10.4809Z" fill="#003349"/>
<path d="M104.002 20.7196C103.954 22.8682 102.429 25.3587 98.2432 25.3587C95.7125 25.3587 94.1876 24.317 94.1876 22.5915C94.1876 20.7033 95.6476 19.7266 98.7786 19.5313L104.002 19.3685V20.7196ZM99.8006 10.4809H99.7195C97.3672 10.4809 95.4043 11.1646 94.1714 12.4342C93.4738 13.1342 93.0358 13.9969 92.8411 14.9573C92.8249 15.0712 92.906 15.1852 93.0358 15.1852H95.2745C95.745 13.5411 97.3023 12.6296 99.7033 12.6296H99.7844C102.429 12.6296 104.018 13.5737 104.018 15.1363V17.2524C104.018 17.3013 103.97 17.3501 103.921 17.3501L98.4541 17.5943C94.0254 17.8221 91.8678 19.4662 91.8678 22.6078C91.8678 26.254 95.1123 27.5562 98.1621 27.5562C100.498 27.5562 102.218 26.9214 103.71 25.4727L104.051 25.0983V27.2307H106.322V15.4619C106.306 12.2877 103.937 10.4809 99.8006 10.4809Z" fill="#003349"/>
<path d="M115.991 10.4646C111.659 10.4646 109.68 12.9225 109.68 15.2177C109.68 16.2595 109.923 17.0408 110.426 17.6593C111.562 19.0267 113.168 19.3522 116.12 19.5476C119.024 19.7429 120.484 20.7033 120.565 22.4776C120.598 23.1775 120.371 23.796 119.917 24.2844C119.235 25.0006 118.035 25.375 116.445 25.375H116.299C114.498 25.3424 112.989 24.6913 112.146 23.5844C111.951 23.324 111.821 23.0798 111.708 22.7868H109.502C109.372 22.7868 109.291 22.9008 109.323 23.031C110.102 25.8145 112.697 27.5074 116.331 27.5562H116.494C118.748 27.5562 120.598 26.9376 121.701 25.7982C122.528 24.9518 122.934 23.8286 122.918 22.4613C122.853 19.4173 120.776 17.757 116.575 17.4152C113.866 17.1873 112.049 16.7152 112.049 15.12C112.049 13.6876 113.752 12.6133 115.991 12.6133C117.775 12.6133 119.138 13.2806 119.803 14.4852C119.868 14.5991 119.981 14.8433 120.079 15.1851H122.285C122.399 15.1851 122.48 15.0875 122.463 14.9735C122.415 14.7294 122.366 14.5015 122.285 14.2899C121.523 11.8645 119.219 10.4646 115.991 10.4646Z" fill="#003349"/>
<path d="M137.696 20.7196C137.648 22.8682 136.123 25.3587 131.937 25.3587C129.407 25.3587 127.882 24.317 127.882 22.5915C127.882 20.7033 129.342 19.7266 132.473 19.5313L137.696 19.3685V20.7196ZM133.495 10.4809H133.414C131.061 10.4809 129.098 11.1646 127.866 12.4342C127.168 13.1504 126.714 13.9969 126.519 14.9735C126.503 15.0875 126.584 15.1852 126.698 15.1852H128.952C129.423 13.5411 130.98 12.6296 133.381 12.6296H133.462C136.107 12.6296 137.696 13.5737 137.696 15.1363V17.2524C137.696 17.3013 137.648 17.3501 137.599 17.3501L132.132 17.5943C127.703 17.8221 125.546 19.4662 125.546 22.6078C125.546 26.254 128.79 27.5562 131.84 27.5562C134.176 27.5562 135.896 26.9214 137.388 25.4727L137.729 25.0983V27.2307H140V15.4619C140 12.2877 137.615 10.4809 133.495 10.4809Z" fill="#003349"/>
<path d="M53.8262 10.8545L48.7972 24.5603L43.6871 10.8545H41.4322C41.3024 10.8545 41.2213 10.9847 41.2537 11.0987L47.3858 27.2136H50.1761L56.2595 11.0987C56.3082 10.9847 56.2109 10.8545 56.0811 10.8545H53.8262Z" fill="#003349"/>
<path d="M11.9397 32H1.20046C0.535341 32 0 31.4628 0 30.7955V12.0272C0 11.6366 0.194669 11.2622 0.519119 11.0343L16.1738 0.209622C16.5794 -0.0670993 17.1147 -0.0670994 17.5203 0.193344L33.175 10.9692C33.5156 11.1971 33.7103 11.5715 33.7103 11.9784V30.7955C33.7103 31.4628 33.175 32 32.5098 32H21.7868V29.5909H30.7091C31.0498 29.5909 31.3094 29.3142 31.3094 28.9886V12.9551C31.3094 12.7597 31.212 12.5644 31.0336 12.4505L17.212 2.89544C17.0012 2.76522 16.7416 2.76522 16.5307 2.89544L2.67671 12.483C2.51448 12.597 2.41715 12.776 2.41715 12.9876V29.0049C2.41715 29.3467 2.69293 29.6072 3.01738 29.6072H11.9397V32Z" fill="#003349"/>
<path d="M7.1541 27.1818H4.75317V14.5666C4.75317 14.1596 4.94784 13.7853 5.28852 13.5736L16.19 6.18356C16.5956 5.90684 17.1147 5.90684 17.5203 6.16728L28.4218 13.5248C28.7624 13.7527 28.9733 14.1271 28.9733 14.534V27.1818H26.5724V15.5107C26.5724 15.2991 26.4751 15.12 26.2966 15.0061L17.2283 8.83683C17.0174 8.7066 16.7578 8.7066 16.5631 8.83683L7.44611 15.0224C7.28388 15.1363 7.18655 15.3154 7.18655 15.527V27.1818H7.1541Z" fill="#003349"/>
<path d="M11.9235 27.1818H9.52258V17.1547C9.52258 16.7478 9.73348 16.3734 10.0579 16.1455L16.19 12.1086C16.5794 11.8482 17.0823 11.8482 17.4716 12.0923L23.6037 16.0804C23.9606 16.292 24.1877 16.6826 24.1877 17.1059V27.1818H21.7868V18.1314C21.7868 17.9198 21.6732 17.7244 21.4948 17.6105L16.8876 14.534L12.2155 17.6105C12.0533 17.7244 11.9397 17.9198 11.9397 18.1151V27.1818H11.9235Z" fill="#003349"/>
</svg>
